<svg width="80" height="24" viewBox="0 0 80 24" fill="none" xmlns="http://www.w3.org/2000/svg">
<rect width="80" height="24" fill="white"/>
<path d="M29.03 11.8467C30.2977 11.3289 30.7709 10.6325 30.7709 9.77549C30.7709 8.27565 29.4585 7.60608 27.3159 7.60608H23.477C23.718 7.97211 23.9502 8.36493 23.9502 8.96308V11.9449C22.8253 12.1681 21.8075 12.3645 20.8523 12.5877C19.9952 10.2308 19.0489 7.60608 19.0489 7.60608H16.6563C16.692 7.9364 16.6652 8.28458 16.4867 8.75774L13.8173 16.2034C13.8173 16.2034 13.6387 16.7301 13.2727 17.2033H15.2279C15.1922 16.9444 15.2368 16.6051 15.3082 16.3998C15.5046 15.8106 16.0403 15.4267 16.6027 15.1767C17.3348 14.8464 18.6114 14.4446 19.2185 14.2661L19.8524 16.0873C19.8524 16.0873 20.1113 16.7748 19.9684 17.2122H22.7271C22.3075 16.6498 22.1646 16.2302 22.1646 16.2123C22.1021 16.0338 21.7361 15.0339 21.2719 13.7572C22.1111 13.5519 22.9949 13.3823 23.9412 13.1948V15.8374C23.9412 16.3462 23.7359 16.7926 23.4681 17.1944H27.1195C27.7176 17.1944 28.2444 17.1586 28.6461 17.0872C30.2084 16.8105 31.3333 16.0159 31.3333 14.3107C31.3422 13.0252 30.4673 12.2395 29.03 11.8467ZM16.7009 13.8286C16.4688 13.9358 16.1742 14.1232 16.0046 14.2929C16.5313 12.7573 17.2544 10.6504 17.6026 9.65051L18.8078 13.0876C18.2008 13.2662 17.2634 13.5608 16.7009 13.8286ZM26.0749 8.81131C26.4499 8.79345 26.5927 8.79346 26.8338 8.79346C28.0122 8.79346 28.5568 9.28447 28.5568 9.98083C28.5568 10.6415 28.1194 11.0521 27.3873 11.2753C27.0838 11.3646 26.5749 11.4717 26.066 11.561C26.0749 11.5521 26.0749 8.81131 26.0749 8.81131ZM26.9677 16.0159H26.0839V12.8198C26.4142 12.7395 26.9409 12.6502 27.2802 12.6145C28.3426 12.8645 29.1282 13.3019 29.1282 14.3821C29.1193 15.6409 28.1997 16.0159 26.9677 16.0159Z" fill="#B31F24"/>
<path d="M32.3334 17.2116C32.8066 16.5063 32.8066 15.8635 32.8066 15.8546V8.98029C32.8066 8.97136 32.8066 8.3375 32.3334 7.62329H35.4135C34.9403 8.3375 34.9403 8.97136 34.9403 8.98029V15.8546C34.9403 15.8635 34.9403 16.5063 35.4135 17.2116H32.3334Z" fill="#431512"/>
<path d="M66.8387 10.454H64.7765C64.955 10.7397 64.8836 11.195 64.6961 11.6503L63.357 15.2124L61.9732 11.6503C61.7857 11.186 61.7232 10.7397 61.8928 10.454H59.2235C59.5895 10.8468 59.8216 11.3378 59.9555 11.6503L62.2499 17.2122H64.0355C64.0355 17.2122 64.0801 16.7569 64.2854 16.248L66.1335 11.6503C66.2584 11.3378 66.5263 10.7843 66.8387 10.454Z" fill="#431512"/>
<path d="M59.5091 14.0251C59.643 12.6145 59.2502 10.1505 56.1345 10.1505C53.5901 10.1505 52.6527 11.9271 52.6527 13.6591C52.6527 15.8642 53.849 17.373 56.7237 17.373C57.8932 17.373 58.8306 17.0248 59.393 16.6855L58.8217 15.4178C58.2771 15.6946 57.6164 15.9356 56.8755 15.9356C55.5899 15.9356 54.8042 15.4892 54.6346 14.2126H57.4022C58.411 14.2215 59.2413 14.159 59.5091 14.0251ZM54.6257 13.052C54.7507 11.9628 55.2417 11.4093 56.1255 11.4093C57.0451 11.4093 57.5004 12.1235 57.5361 13.0431C57.5361 13.0431 57.1344 13.052 56.6076 13.052H54.6257Z" fill="#431512"/>
<path d="M40.6895 17.2122H43.4214C43.0018 16.5873 43.0018 16.0159 43.0018 16.0159V12.4091C43.0018 11.1146 42.3054 10.3201 40.8413 10.3201C39.9039 10.3201 39.1361 10.7397 38.5648 11.2575V10.454H36.2436C36.6632 11.0878 36.6632 11.6503 36.6632 11.6503V16.007C36.6632 16.0159 36.6632 16.5783 36.2436 17.2033H38.9844C38.5648 16.5783 38.5648 16.007 38.5648 16.007V12.4002C38.9129 12.0431 39.4129 11.7753 39.9575 11.7753C40.7967 11.7753 41.1002 12.2395 41.1002 12.9626V15.998C41.1002 16.0159 41.1002 16.5783 40.6895 17.2122Z" fill="#431512"/>
<path d="M47.7692 12.677C49.1173 12.677 49.8583 13.3376 49.8583 14.4C49.8583 15.3552 49.2869 16.0516 47.7424 16.0516H46.8139V12.6859C46.8139 12.677 47.7692 12.677 47.7692 12.677ZM47.5639 8.77558C48.7423 8.77558 49.2869 9.23982 49.2869 10.0969C49.2869 10.9539 48.7959 11.4717 47.6621 11.4717C47.4389 11.4717 47.0461 11.4807 46.805 11.4717V8.77558H47.5639ZM47.8138 17.2122C48.412 17.2122 48.9655 17.1765 49.3672 17.1051C50.9028 16.8372 52.0455 16.0516 52.0455 14.3464C52.0455 12.9805 51.1706 12.2752 49.8047 11.8824C51.0278 11.4182 51.4384 10.7486 51.4384 9.88261C51.4384 8.38277 50.2154 7.61499 48.0192 7.61499H44.341C44.5999 8.00781 44.6892 8.57025 44.6892 8.97199V15.8463C44.6892 16.2927 44.6088 16.7658 44.341 17.2033H47.8138V17.2122Z" fill="#431512"/>
</svg>
