<svg width="32" height="32" viewBox="0 0 32 32" fill="none" xmlns="http://www.w3.org/2000/svg">
<path d="M24.221 15.3332H11.7959L17.2242 9.90486C17.658 9.47104 17.658 8.75913 17.2242 8.3253C17.1213 8.22218 16.9991 8.14037 16.8645 8.08455C16.7299 8.02873 16.5857 8 16.44 8C16.2943 8 16.1501 8.02873 16.0155 8.08455C15.8809 8.14037 15.7587 8.22218 15.6558 8.3253L8.3253 15.6558C8.22218 15.7587 8.14037 15.8809 8.08455 16.0155C8.02873 16.1501 8 16.2943 8 16.44C8 16.5857 8.02873 16.7299 8.08455 16.8645C8.14037 16.9991 8.22218 17.1213 8.3253 17.2242L15.6558 24.5547C15.7588 24.6577 15.881 24.7394 16.0156 24.7951C16.1501 24.8508 16.2943 24.8795 16.44 24.8795C16.5856 24.8795 16.7299 24.8508 16.8644 24.7951C16.999 24.7394 17.1212 24.6577 17.2242 24.5547C17.3272 24.4517 17.4089 24.3294 17.4646 24.1949C17.5204 24.0603 17.549 23.9161 17.549 23.7705C17.549 23.6248 17.5204 23.4806 17.4646 23.346C17.4089 23.2115 17.3272 23.0892 17.2242 22.9862L11.7959 17.5579H24.221C24.8328 17.5579 25.3333 17.0574 25.3333 16.4456C25.3333 15.8338 24.8328 15.3332 24.221 15.3332Z" fill="current" stroke="current" stroke-width="0.541667"/>
<path d="M2.34315 29.6569L3.05025 28.9497L2.34315 29.6569ZM29.6569 29.6569L28.9497 28.9497L29.6569 29.6569ZM29.6569 2.34315L28.9497 3.05025L29.6569 2.34315ZM2.34315 2.34315L1.63604 1.63604L2.34315 2.34315ZM16 31C12.2005 31 9.45146 30.9979 7.35507 30.716C5.28745 30.438 4.00506 29.9046 3.05025 28.9497L1.63604 30.364C3.02438 31.7523 4.79918 32.3904 7.08858 32.6982C9.34921 33.0021 12.257 33 16 33V31ZM-1 16C-1 19.743 -1.00212 22.6508 -0.69819 24.9114C-0.390388 27.2008 0.247697 28.9756 1.63604 30.364L3.05025 28.9497C2.09545 27.9949 1.56196 26.7125 1.28398 24.6449C1.00212 22.5485 1 19.7995 1 16H-1ZM31 16C31 19.7995 30.9979 22.5485 30.716 24.6449C30.438 26.7125 29.9046 27.9949 28.9497 28.9497L30.364 30.364C31.7523 28.9756 32.3904 27.2008 32.6982 24.9114C33.0021 22.6508 33 19.743 33 16H31ZM16 33C19.743 33 22.6508 33.0021 24.9114 32.6982C27.2008 32.3904 28.9756 31.7523 30.364 30.364L28.9497 28.9497C27.9949 29.9046 26.7125 30.438 24.6449 30.716C22.5485 30.9979 19.7995 31 16 31V33ZM16 1C19.7995 1 22.5485 1.00212 24.6449 1.28398C26.7125 1.56196 27.9949 2.09545 28.9497 3.05025L30.364 1.63604C28.9756 0.247697 27.2008 -0.390388 24.9114 -0.69819C22.6508 -1.00212 19.743 -1 16 -1V1ZM33 16C33 12.257 33.0021 9.34921 32.6982 7.08858C32.3904 4.79918 31.7523 3.02438 30.364 1.63604L28.9497 3.05025C29.9046 4.00506 30.438 5.28745 30.716 7.35507C30.9979 9.45146 31 12.2005 31 16H33ZM16 -1C12.257 -1 9.34921 -1.00212 7.08858 -0.69819C4.79918 -0.390388 3.02438 0.247697 1.63604 1.63604L3.05025 3.05025C4.00506 2.09545 5.28745 1.56196 7.35507 1.28398C9.45146 1.00212 12.2005 1 16 1V-1ZM1 16C1 12.2005 1.00212 9.45146 1.28398 7.35507C1.56196 5.28745 2.09545 4.00506 3.05025 3.05025L1.63604 1.63604C0.247697 3.02438 -0.390388 4.79918 -0.69819 7.08858C-1.00212 9.34921 -1 12.257 -1 16H1Z" fill="current"/>
</svg>
