<svg width="24" height="24" viewBox="0 0 24 24" fill="none" xmlns="http://www.w3.org/2000/svg">
<path d="M18.9651 17.1166L19.3279 17.6C19.3784 17.6674 19.4092 17.7475 19.4168 17.8314C19.4243 17.9152 19.4084 17.9996 19.3707 18.0749C19.3331 18.1502 19.2752 18.2136 19.2035 18.2579C19.1319 18.3021 19.0493 18.3256 18.9651 18.3256H4.45349C4.36927 18.3256 4.28672 18.3021 4.21508 18.2579C4.14344 18.2136 4.08554 18.1502 4.04788 18.0749C4.01021 17.9996 3.99427 17.9152 4.00183 17.8314C4.0094 17.7475 4.04017 17.6674 4.0907 17.6L4.45349 17.1166V9.25581C4.45349 7.33145 5.21794 5.48591 6.57867 4.12518C7.9394 2.76445 9.78494 2 11.7093 2C13.6337 2 15.4792 2.76445 16.8399 4.12518C18.2007 5.48591 18.9651 7.33145 18.9651 9.25581V17.1166ZM9.44186 19.2326H13.9767C13.9767 19.8339 13.7379 20.4107 13.3126 20.8359C12.8874 21.2611 12.3107 21.5 11.7093 21.5C11.1079 21.5 10.5312 21.2611 10.106 20.8359C9.68075 20.4107 9.44186 19.8339 9.44186 19.2326Z" fill="current"/>
</svg>
