<svg width="104" height="104" viewBox="0 0 104 104" fill="none" xmlns="http://www.w3.org/2000/svg">
<path d="M85.6682 50.4634C82.5028 46.7669 81.0643 43.5636 81.0643 38.1213V36.2709C81.0643 29.179 79.4321 24.6096 75.8833 20.0402C70.4138 12.944 61.206 8.66699 52.192 8.66699H51.8087C42.9842 8.66699 34.0649 12.7476 28.5006 19.5558C24.7581 24.2168 22.9363 28.9826 22.9363 36.2709V38.1213C22.9363 43.5636 21.5926 46.7669 18.3324 50.4634C15.9336 53.1867 15.167 56.6869 15.167 60.475C15.167 64.2676 16.4116 67.8594 18.9095 70.779C22.1697 74.2792 26.7736 76.5137 31.4766 76.9021C38.2855 77.6789 45.0945 77.9713 52.0025 77.9713C58.9062 77.9713 65.7151 77.4825 72.5284 76.9021C77.227 76.5137 81.8309 74.2792 85.0911 70.779C87.5847 67.8594 88.8337 64.2676 88.8337 60.475C88.8337 56.6869 88.0671 53.1867 85.6682 50.4634Z" fill="#45130F"/>
<path opacity="0.4" d="M60.7046 83.3235C58.5383 82.8609 45.3382 82.8609 43.1719 83.3235C41.32 83.7512 39.3174 84.7463 39.3174 86.9284C39.4251 89.0101 40.6439 90.8475 42.3321 92.0127L42.3278 92.0171C44.5113 93.7192 47.0738 94.8015 49.7569 95.1899C51.1867 95.3863 52.6424 95.3776 54.1239 95.1899C56.8027 94.8015 59.3652 93.7192 61.5487 92.0171L61.5444 92.0127C63.2327 90.8475 64.4515 89.0101 64.5591 86.9284C64.5591 84.7463 62.5565 83.7512 60.7046 83.3235Z" fill="#F49C00"/>
</svg>
