<svg width="104" height="104" viewBox="0 0 104 104" fill="none" xmlns="http://www.w3.org/2000/svg">
<path d="M73.125 74.75L69.875 78L67.6081 78.7759L52.3128 84.0084L36.9383 89.2673L21.7222 94.4734L8.125 99.125H4.875V95.875L7.65578 89.2003L11.6086 79.7123L15.5614 70.2264L19.8047 60.0438L23.467 51.2545L27.4198 41.7686L29.25 37.375L32.5 34.125L47.775 49.4L65.323 66.948L73.125 74.75Z" fill="#D69651"/>
<path d="M36.9383 89.2672L21.7222 94.4733L7.65576 89.2001L11.6086 79.7122L36.9383 89.2672Z" fill="#C78640"/>
<path d="M67.608 78.7759L52.3127 84.0084L15.5613 70.2264L19.8046 60.0437L67.608 78.7759Z" fill="#C78640"/>
<path d="M65.323 66.9479L23.467 51.2545L27.4199 41.7686L47.775 49.4L65.323 66.9479Z" fill="#C78640"/>
<path d="M40.625 32.5L47.42 25.705C48.2716 24.8534 48.75 23.6984 48.75 22.4942C48.75 21.6055 48.4892 20.7364 48.0001 19.9945C47.5109 19.2526 46.8147 18.6706 45.9979 18.3206L41.7668 16.5072C38.8894 15.274 36.3864 13.3069 34.5081 10.8025L32.5 8.125L37.375 4.875C39.4814 8.03459 42.5809 10.4019 46.1833 11.6028L48.1188 12.2479C50.1954 12.9401 52.0015 14.2681 53.2814 16.0439C54.5613 17.8196 55.25 19.9531 55.25 22.142C55.25 24.6315 54.3594 27.039 52.7392 28.9292L45.5 37.375L40.625 32.5Z" fill="#FFC431"/>
<path d="M63.375 24.375L61.75 14.625L71.5 17.875L63.375 24.375Z" fill="#D1E4FF"/>
<path d="M53.2559 8.08643L54.0456 4.93393L60.5447 6.56204L59.755 9.71454L53.2559 8.08643Z" fill="#FB6A83"/>
<path d="M68.9717 6.75195L73.8463 3.50024L75.6501 6.20424L70.7754 9.45595L68.9717 6.75195Z" fill="#FFC431"/>
<path d="M30.9272 18.252L34.0797 17.4622L35.7079 23.9613L32.5554 24.751L30.9272 18.252Z" fill="#6173E8"/>
<path d="M71.5 63.375L78.295 56.58C79.1466 55.7284 80.3016 55.25 81.5058 55.25C82.3945 55.25 83.2636 55.5108 84.0055 55.9999C84.7474 56.4891 85.3294 57.1853 85.6794 58.0021L87.4928 62.2332C88.7259 65.1106 90.6931 67.6136 93.1975 69.4919L95.875 71.5L99.125 66.625C95.9654 64.5186 93.5981 61.4191 92.3972 57.8167L91.7521 55.8812C91.0599 53.8046 89.7319 51.9985 87.9561 50.7186C86.1804 49.4387 84.047 48.75 81.858 48.75C79.3685 48.75 76.961 49.6406 75.0708 51.2608L66.625 58.5L71.5 63.375Z" fill="#6173E8"/>
<path d="M84.5 42.25L94.25 43.875L91 34.125L84.5 42.25Z" fill="#FFC431"/>
<path d="M94.3076 49.093L97.4601 48.3033L99.0882 54.8023L95.9357 55.5921L94.3076 49.093Z" fill="#FB6A83"/>
<path d="M94.5498 33.2373L97.8015 28.3627L100.506 30.1664L97.2538 35.0411L94.5498 33.2373Z" fill="#D1E4FF"/>
<path d="M79.2593 71.4944L80.049 68.3419L86.5481 69.97L85.7584 73.1225L79.2593 71.4944Z" fill="#6173E8"/>
<path d="M52 45.5L58.4719 37.9446C60.5732 35.4909 63.5285 33.9274 66.7393 33.5706L66.9238 33.5501C69.6779 33.2483 72.2685 32.0922 74.3324 30.2437C76.3962 28.3953 77.8298 25.9472 78.4321 23.2429V23.2429C78.7921 21.623 79.5876 20.1322 80.7327 18.9312C81.8778 17.7303 83.3291 16.8648 84.9301 16.4282L97.5 13L99.125 19.5L90.3377 21.4527C88.6022 21.8384 87.0166 22.7215 85.7751 23.9941C84.5335 25.2666 83.6897 26.8734 83.3469 28.6179L83.3008 28.8527C82.7241 31.7858 81.2189 34.4555 79.0077 36.4671C76.7965 38.4787 73.9967 39.7254 71.0222 40.0228L70.8302 40.042C67.0984 40.4062 63.6603 42.2259 61.2607 45.107C59.131 47.6678 56.875 50.375 56.875 50.375L52 45.5Z" fill="#FB6A83"/>
</svg>
