<svg width="20" height="20" viewBox="0 0 20 20" fill="none" xmlns="http://www.w3.org/2000/svg">
<path d="M9.35844 6.07511V2.73426C9.35844 2.37903 9.64177 2.08301 10.0001 2.08301C10.3209 2.08301 10.5928 2.33175 10.6358 2.64682L10.6418 2.73426V6.07511L14.625 6.07536C16.6084 6.07536 18.2378 7.69949 18.3293 9.72502L18.3334 9.90475V14.1042C18.3334 16.1439 16.7606 17.8182 14.8067 17.9122L14.6334 17.9163H5.36669C3.38335 17.9163 1.76176 16.3003 1.67072 14.2674L1.66669 14.087V9.89614C1.66669 7.85643 3.23161 6.17402 5.18502 6.07955L5.35835 6.07536H9.35835V11.4107L8.02502 10.0338C7.77502 9.77567 7.36669 9.77567 7.11669 10.0338C6.99169 10.1629 6.93335 10.335 6.93335 10.5071C6.93335 10.6379 6.97069 10.7742 7.04962 10.8896L7.11669 10.9718L9.54169 13.4846C9.65835 13.6137 9.82502 13.6825 10 13.6825C10.1389 13.6825 10.2778 13.6347 10.3878 13.5441L10.45 13.4846L12.875 10.9718C13.125 10.7137 13.125 10.292 12.875 10.0338C12.6477 9.79914 12.2896 9.7778 12.0386 9.96982L11.9667 10.0338L10.6417 11.4107V6.07536L9.35844 6.07511Z" fill="#828282"/>
</svg>
