<svg width="56" height="56" viewBox="0 0 56 56" fill="none" xmlns="http://www.w3.org/2000/svg">
<rect width="56" height="56" rx="8" fill="white" fill-opacity="0.3"/>
<path d="M26.7778 30.1393C26.7778 29.6345 26.3647 29.2227 25.8612 29.2227H21.2778V32.8893C21.2778 33.564 20.7303 34.1115 20.0556 34.1115C19.3809 34.1115 18.8334 33.564 18.8334 32.8893V29.2227H14.25C13.7453 29.2227 13.3334 29.6345 13.3334 30.1393V41.7504C13.3334 42.2552 13.7453 42.6671 14.25 42.6671H25.8612C26.3647 42.6671 26.7778 42.2552 26.7778 41.7504V30.1393Z" fill="white"/>
<path d="M42.6665 30.1393C42.6665 29.6345 42.2534 29.2227 41.7498 29.2227H37.1665V32.8893C37.1665 33.564 36.6189 34.1115 35.9443 34.1115C35.2696 34.1115 34.722 33.564 34.722 32.8893V29.2227H30.1387C29.6339 29.2227 29.222 29.6345 29.222 30.1393V41.7504C29.222 42.2552 29.6339 42.6671 30.1387 42.6671H41.7498C42.2534 42.6671 42.6665 42.2552 42.6665 41.7504V30.1393Z" fill="white"/>
<path d="M34.7224 14.2497C34.7224 13.7461 34.3093 13.333 33.8057 13.333H29.2224V16.9997C29.2224 17.6743 28.6748 18.2219 28.0002 18.2219C27.3255 18.2219 26.778 17.6743 26.778 16.9997V13.333H22.1946C21.6898 13.333 21.278 13.7461 21.278 14.2497V25.8608C21.278 26.3656 21.6898 26.7775 22.1946 26.7775H33.8057C34.3093 26.7775 34.7224 26.3656 34.7224 25.8608V14.2497Z" fill="white"/>
</svg>
