<svg width="24" height="24" viewBox="0 0 24 24" fill="none" xmlns="http://www.w3.org/2000/svg">
<path d="M11.0833 13.6045C11.0833 13.2259 10.7735 12.917 10.3958 12.917H6.95834V15.667C6.95834 16.173 6.54767 16.5837 6.04167 16.5837C5.53567 16.5837 5.125 16.173 5.125 15.667V12.917H1.6875C1.30892 12.917 1 13.2259 1 13.6045V22.3128C1 22.6914 1.30892 23.0003 1.6875 23.0003H10.3958C10.7735 23.0003 11.0833 22.6914 11.0833 22.3128V13.6045Z" fill="current"/>
<path d="M22.9998 13.6045C22.9998 13.2259 22.69 12.917 22.3123 12.917H18.8748V15.667C18.8748 16.173 18.4642 16.5837 17.9582 16.5837C17.4522 16.5837 17.0415 16.173 17.0415 15.667V12.917H13.604C13.2254 12.917 12.9165 13.2259 12.9165 13.6045V22.3128C12.9165 22.6914 13.2254 23.0003 13.604 23.0003H22.3123C22.69 23.0003 22.9998 22.6914 22.9998 22.3128V13.6045Z" fill="current"/>
<path d="M17.0418 1.6875C17.0418 1.30983 16.732 1 16.3543 1H12.9168V3.75C12.9168 4.256 12.5062 4.66667 12.0002 4.66667C11.4942 4.66667 11.0835 4.256 11.0835 3.75V1H7.646C7.26741 1 6.9585 1.30983 6.9585 1.6875V10.3958C6.9585 10.7744 7.26741 11.0833 7.646 11.0833H16.3543C16.732 11.0833 17.0418 10.7744 17.0418 10.3958V1.6875Z" fill="current"/>
</svg>
