<svg width="24" height="24" viewBox="0 0 24 24" fill="none" xmlns="http://www.w3.org/2000/svg">
    <path
        d="M19.8874 3.23554C20.2094 2.92149 20.7138 2.92149 21.0251 3.23554C21.3471 3.5496 21.3471 4.06942 21.0251 4.38348L19.0717 6.35447C20.628 7.78397 21.9482 9.71164 22.9356 12.0292C23.0215 12.2349 23.0215 12.4732 22.9356 12.6681C20.6387 18.0613 16.5494 21.2885 11.9986 21.2885H11.9878C9.91633 21.2885 7.9307 20.6062 6.1812 19.3608L4.09897 21.4617C3.93798 21.6242 3.73405 21.7 3.53012 21.7C3.32619 21.7 3.11153 21.6242 2.96126 21.4617C2.69294 21.191 2.65 20.7578 2.86467 20.4438L2.89686 20.4004L18.7712 4.38348C18.7926 4.36182 18.8141 4.34016 18.8248 4.3185C18.8463 4.29684 18.8677 4.27518 18.8785 4.25353L19.8874 3.23554ZM12.0014 3.42387C13.5363 3.42387 15.0282 3.79208 16.402 4.48517L12.8172 8.10225C12.5596 8.05894 12.2805 8.02645 12.0014 8.02645C9.62943 8.02645 7.7082 9.96494 7.7082 12.3583C7.7082 12.6399 7.7404 12.9214 7.78333 13.1813L3.81208 17.1883C2.73877 15.932 1.80498 14.4159 1.0644 12.6723C0.978534 12.4774 0.978534 12.2392 1.0644 12.0334C3.36129 6.64026 7.45061 3.42387 11.9907 3.42387H12.0014ZM15.5405 9.9174L14.3706 11.0978C14.5638 11.466 14.6711 11.8992 14.6711 12.3541C14.6711 13.8377 13.469 15.0506 11.9986 15.0506C11.5478 15.0506 11.1184 14.9423 10.7535 14.7474L9.5836 15.9278C10.2705 16.3935 11.1077 16.6751 11.9986 16.6751C14.3598 16.6751 16.2811 14.7366 16.2811 12.3541C16.2811 11.4552 16.002 10.6105 15.5405 9.9174Z"
        fill="#431215" />
</svg>