<svg width="21" height="20" viewBox="0 0 21 20" fill="none" xmlns="http://www.w3.org/2000/svg">
<g clip-path="url(#clip0)">
<path d="M19.7594 17.2615H6.47839C5.93101 17.2615 5.48737 16.8148 5.48737 16.2636C5.48737 15.7124 5.93101 15.2656 6.47839 15.2656H19.7591C20.3065 15.2656 20.7501 15.7124 20.7501 16.2636C20.7501 16.8148 20.3068 17.2615 19.7594 17.2615Z" fill="#828282"/>
<path d="M19.7594 10.9979H6.47839C5.93101 10.9979 5.48737 10.5511 5.48737 9.99991C5.48737 9.4487 5.93101 9.00195 6.47839 9.00195H19.7591C20.3065 9.00195 20.7501 9.4487 20.7501 9.99991C20.7505 10.5511 20.3068 10.9979 19.7594 10.9979Z" fill="#828282"/>
<path d="M19.7594 4.73321H6.47839C5.93101 4.73321 5.48737 4.28646 5.48737 3.73526C5.48737 3.18406 5.93101 2.7373 6.47839 2.7373H19.7591C20.3065 2.7373 20.7501 3.18406 20.7501 3.73526C20.7501 4.28646 20.3068 4.73321 19.7594 4.73321Z" fill="#828282"/>
<path d="M2.21986 5.15316C2.95492 5.15316 3.55081 4.55311 3.55081 3.81291C3.55081 3.07271 2.95492 2.47266 2.21986 2.47266C1.4848 2.47266 0.888916 3.07271 0.888916 3.81291C0.888916 4.55311 1.4848 5.15316 2.21986 5.15316Z" fill="#828282"/>
<path d="M2.21986 11.3397C2.95492 11.3397 3.55081 10.7396 3.55081 9.99943C3.55081 9.25923 2.95492 8.65918 2.21986 8.65918C1.4848 8.65918 0.888916 9.25923 0.888916 9.99943C0.888916 10.7396 1.4848 11.3397 2.21986 11.3397Z" fill="#828282"/>
<path d="M2.21986 17.5272C2.95492 17.5272 3.55081 16.9271 3.55081 16.1869C3.55081 15.4467 2.95492 14.8467 2.21986 14.8467C1.4848 14.8467 0.888916 15.4467 0.888916 16.1869C0.888916 16.9271 1.4848 17.5272 2.21986 17.5272Z" fill="#828282"/>
</g>
<defs>
<clipPath id="clip0">
<rect width="19.8611" height="20" fill="white" transform="translate(0.888916)"/>
</clipPath>
</defs>
</svg>
