<svg width="56" height="56" viewBox="0 0 56 56" fill="none" xmlns="http://www.w3.org/2000/svg">
<rect width="56" height="56" rx="8" fill="white" fill-opacity="0.3"/>
<path d="M28 12C36.832 12 44 19.168 44 28C44 36.848 36.832 44 28 44C19.152 44 12 36.848 12 28C12 19.168 19.152 12 28 12ZM34.16 22.736C34.336 22.176 33.824 21.648 33.264 21.824L25.072 24.384C24.736 24.496 24.464 24.752 24.368 25.088L21.808 33.296C21.632 33.84 22.16 34.368 22.704 34.192L30.864 31.632C31.2 31.536 31.472 31.264 31.568 30.928L34.16 22.736Z" fill="white"/>
</svg>
