<svg width="56" height="56" viewBox="0 0 56 56" fill="none" xmlns="http://www.w3.org/2000/svg">
<rect width="56" height="56" rx="8" fill="white" fill-opacity="0.3"/>
<path d="M30.5049 8C31 8 31.4158 8.42 31.4158 8.92V15.36C31.4158 19.02 34.4059 22.02 38.0297 22.04C39.5149 22.04 40.7228 22.06 41.6139 22.06C42.2277 22.06 43.2574 22.04 44.0891 22.04C44.604 22.04 45 22.44 45 22.94V39.02C45 43.98 41.0198 48 36.0891 48H20.3465C15.1782 48 11 43.78 11 38.58V17.02C11 12.06 15 8 19.9307 8H30.5049ZM25.1782 25.44C24.604 24.84 23.6733 24.84 23.099 25.44C22.5248 26.02 22.5248 26.96 23.099 27.54L25.5149 29.98L23.099 32.42C22.5248 33 22.5248 33.94 23.099 34.52C23.3762 34.82 23.7525 34.96 24.1287 34.96C24.505 34.96 24.901 34.82 25.1782 34.52L27.5941 32.08L30.0099 34.52C30.3069 34.82 30.6832 34.96 31.0594 34.96C31.4356 34.96 31.8119 34.82 32.1089 34.52C32.6832 33.94 32.6832 33 32.1089 32.42L29.6931 29.98L32.1089 27.54C32.6832 26.96 32.6832 26.02 32.1089 25.44C31.5347 24.84 30.5842 24.84 30.0099 25.44L27.5941 27.88L25.1782 25.44ZM34.2925 9.8124C34.2925 8.9504 35.3281 8.5224 35.9182 9.1444C38.0608 11.3924 41.8014 15.3224 43.8925 17.5184C44.4687 18.1244 44.0469 19.1304 43.2113 19.1324C41.5836 19.1384 39.6667 19.1324 38.2865 19.1184C36.0964 19.1184 34.2925 17.2964 34.2925 15.0844V9.8124Z" fill="white"/>
</svg>
