<svg width="40" height="40" viewBox="0 0 40 40" fill="none" xmlns="http://www.w3.org/2000/svg">
<path d="M1 28.9189L6.63627 24.9756L12.9446 33.9922L7.3083 37.9355L1 28.9189Z" fill="#1FB19F"/>
<path d="M38.9785 24.5846C39.0216 24.3465 38.9978 24.1012 38.9097 23.8758C38.7855 23.5328 38.5302 23.2532 38.1998 23.0983C37.8695 22.9435 37.4912 22.9261 37.1481 23.0501L30.2944 25.548C30.1223 26.1149 29.7726 26.6115 29.2969 26.9646C28.8211 27.3177 28.2445 27.5086 27.6521 27.5091C27.488 27.5101 27.3242 27.494 27.1635 27.4609L19.7318 26.1466L19.9657 24.7979L27.4043 26.1122C27.7414 26.1735 28.0892 26.1075 28.3803 25.927C28.6715 25.7465 28.8852 25.4643 28.9801 25.1351C29.0379 24.948 29.0497 24.7497 29.0145 24.5571C28.9856 24.3449 28.9079 24.1423 28.7874 23.9653C28.5751 23.6656 28.2541 23.4607 27.8929 23.3941L20.9842 22.1762C18.9524 21.8266 16.8671 21.9562 14.8943 22.5546L14.7704 22.589C13.4649 22.9868 12.2313 23.5908 11.1165 24.3782L8.95581 25.8851L13.2979 32.092C14.9234 30.9755 16.9238 30.5452 18.8647 30.8947L20.0965 31.1011C21.4063 31.3345 22.7545 31.2182 24.005 30.7639L38.0908 25.6374C38.3182 25.5554 38.52 25.4148 38.6758 25.23C38.8317 25.0452 38.9361 24.8226 38.9785 24.5846Z" fill="#1FB19F"/>
<path d="M37.3286 4.75248V2.68812C37.3286 2.50562 37.2561 2.33059 37.1271 2.20155C36.998 2.0725 36.823 2 36.6405 2H29.0712V4.75248H37.3286Z" fill="#1FB19F"/>
<path d="M25.1424 6.32828C25.2724 6.19936 25.448 6.12702 25.631 6.12702C25.814 6.12702 25.9897 6.19936 26.1196 6.32828L27.6954 7.91096V2H23.5667V7.91096L25.1424 6.32828Z" fill="#1FB19F"/>
<path d="M13.9326 2.68812V4.75248H22.1901V2H14.6207C14.4382 2 14.2632 2.0725 14.1342 2.20155C14.0051 2.33059 13.9326 2.50562 13.9326 2.68812Z" fill="#1FB19F"/>
<path d="M22.6167 10.2026C22.4903 10.152 22.3821 10.0645 22.306 9.95166C22.2299 9.83878 22.1895 9.70564 22.1901 9.56951V6.12891H13.9326V21.4258C14.084 21.3708 14.2354 21.3089 14.3937 21.2676L14.5175 21.2263C16.6893 20.5687 18.9854 20.432 21.2198 20.8272L28.1354 22.0451C28.6057 22.1271 29.0454 22.3338 29.4085 22.6438H34.2459L36.6819 21.7561C36.8909 21.6834 37.1082 21.6372 37.3287 21.6185V6.12891H29.0713V9.56951C29.0718 9.70564 29.0314 9.83878 28.9553 9.95166C28.8792 10.0645 28.771 10.152 28.6446 10.2026C28.563 10.2412 28.4734 10.26 28.3832 10.2576C28.2004 10.2582 28.0247 10.1864 27.8946 10.0581L25.6307 7.78728L23.3668 10.0581C23.27 10.1536 23.1471 10.2182 23.0136 10.244C22.8801 10.2697 22.742 10.2553 22.6167 10.2026Z" fill="#1FB19F"/>
</svg>
