<svg width="56" height="56" viewBox="0 0 56 56" fill="none" xmlns="http://www.w3.org/2000/svg">
<rect width="56" height="56" rx="8" fill="white" fill-opacity="0.3"/>
<path d="M27.3236 14.667C30.6337 14.667 33.3333 17.3203 33.3333 20.587V26.9737H25.1938C24.6105 26.9737 24.1492 27.427 24.1492 28.0003C24.1492 28.5603 24.6105 29.027 25.1938 29.027H33.3333V35.4003C33.3333 38.667 30.6337 41.3337 27.2965 41.3337H20.6899C17.3663 41.3337 14.6667 38.6803 14.6667 35.4137V20.6003C14.6667 17.3203 17.3798 14.667 20.7035 14.667H27.3236ZM36.7203 23.4006C37.1203 22.9873 37.7736 22.9873 38.1736 23.3873L42.0669 27.2673C42.2669 27.4673 42.3736 27.7206 42.3736 28.0006C42.3736 28.2673 42.2669 28.5339 42.0669 28.7206L38.1736 32.6006C37.9736 32.8006 37.7069 32.9073 37.4536 32.9073C37.1869 32.9073 36.9203 32.8006 36.7203 32.6006C36.3203 32.2006 36.3203 31.5473 36.7203 31.1473L38.8536 29.0273H33.3336V26.9739H38.8536L36.7203 24.8539C36.3203 24.4539 36.3203 23.8006 36.7203 23.4006Z" fill="white"/>
</svg>
