<svg width="12" height="12" viewBox="0 0 12 12" fill="none" xmlns="http://www.w3.org/2000/svg">
<path d="M5.48179 0C6.91541 0 8.08461 1.19398 8.08461 2.664V5.53801H4.55937C4.30669 5.53801 4.10695 5.74199 4.10695 5.99998C4.10695 6.25198 4.30669 6.46199 4.55937 6.46199H8.08461V9.32997C8.08461 10.8 6.91541 12 5.47005 12H2.60871C1.16921 12 0 10.806 0 9.336V2.66998C0 1.19398 1.1751 0 2.61456 0H5.48179ZM9.55149 3.93011C9.72473 3.74413 10.0077 3.74413 10.181 3.92413L11.8672 5.67013C11.9538 5.76013 12 5.87411 12 6.00011C12 6.12013 11.9538 6.2401 11.8672 6.32411L10.181 8.07011C10.0943 8.16011 9.97884 8.20813 9.86913 8.20813C9.75362 8.20813 9.63811 8.16011 9.55149 8.07011C9.37825 7.89011 9.37825 7.59613 9.55149 7.41613L10.4755 6.46213L8.08461 6.46199V5.53801L10.4755 5.5381L9.55149 4.5841C9.37825 4.4041 9.37825 4.11011 9.55149 3.93011Z" fill="#613633" fill-opacity="0.6"/>
</svg>
