<svg width="24" height="24" viewBox="0 0 24 24" fill="none" xmlns="http://www.w3.org/2000/svg">
<path d="M12.0898 3.79404C13.9513 3.79404 15.7162 4.46676 17.2528 5.71222C18.7894 6.94858 20.0976 8.75767 21.0372 11.0213C21.1074 11.194 21.1074 11.394 21.0372 11.5577C19.1581 16.0849 15.8128 18.794 12.0898 18.794H12.0811C8.36692 18.794 5.02155 16.0849 3.14253 11.5577C3.07228 11.394 3.07228 11.194 3.14253 11.0213C5.02155 6.49404 8.36692 3.79404 12.0811 3.79404H12.0898ZM12.0898 7.65767C10.1494 7.65767 8.57765 9.28495 8.57765 11.294C8.57765 13.294 10.1494 14.9213 12.0898 14.9213C14.0216 14.9213 15.5933 13.294 15.5933 11.294C15.5933 9.28495 14.0216 7.65767 12.0898 7.65767ZM12.0909 9.01931C13.2938 9.01931 14.2772 10.0375 14.2772 11.292C14.2772 12.5375 13.2938 13.5557 12.0909 13.5557C10.8792 13.5557 9.89578 12.5375 9.89578 11.292C9.89578 11.1375 9.91334 10.992 9.93968 10.8466H9.98358C10.9582 10.8466 11.7485 10.0466 11.7836 9.04658C11.8802 9.0284 11.9855 9.01931 12.0909 9.01931Z" fill="#45130F"/>
</svg>
